# xmcd
#
# Track frame offsets:
#	150
#	15370
#	32431
#	49032
#	61374
#	76421
#	90955
#	108502
#	122956
#	141594
#	169307
#	184540
#	203014
#	241407
#	256601
#	271748
#	284797
#	299909
#	312719
#	329925
#	343818
#
# Disc length: 4765 seconds
#
# Revision: 1
# Processed by: cddbd v1.4PL0 Copyright (c) Steve Scherf et al.
# Submitted via: audiograbber 1.80
#
DISCID=45129b15
DTITLE=Artistas Variados - Só Forró
DYEAR=1900
DGENRE=
TTITLE0=Acarajé com Camarão - Chorando Se Foi
TTITLE1=Acarajé com Camarão - Me Ajude a Te Esq
TTITLE2=Adelmário Coelho - 500 Anos de Brasil
TTITLE3=Adelmário Coelho - Até Mais Vê ( Ao Viv
TTITLE4=Banda Eva - Amei Demais
TTITLE5=Banda Eva - No Meio das Estrelas
TTITLE6=Banda Metrópole - Amor Sem Fim ( Ao Viv
TTITLE7=Banda Metrópole - Dedicação ( Ao Vivo )
TTITLE8=Brucelose - Sede de Te Amar (Ao Vivo)
TTITLE9=Brucelose - Te Amo Demais ( Ao Vivo )
TTITLE10=Café Pilado - Caia Por Cima de Mim
TTITLE11=Café Pilado - Cosas De La Vita
TTITLE12=Catuaba com Amendoim - Saga de Um Vaque
TTITLE13=Cavalo de Pau - Cara a Cara (Acústico)
TTITLE14=Flávio José - A Casa da Saudade ( Ao Vi
TTITLE15=Flávio José - Caboclo Sonhador ( Ao Viv
TTITLE16=Lordão - Carente de Amor
TTITLE17=Lordão - Gente Bonita
TTITLE18=Caviar com Rapadura - Abra o Jogo ( Ao
TTITLE19=Caviar com Rapadura - Amanhecer No Sert
TTITLE20=Mastruz com Leite - Noda de Cajú
EXTD=Este CD é realmente uma obra prima !!!!
EXTT0=
EXTT1=
EXTT2=
EXTT3=
EXTT4=
EXTT5=
EXTT6=
EXTT7=
EXTT8=
EXTT9=
EXTT10=
EXTT11=
EXTT12=
EXTT13=
EXTT14=
EXTT15=
EXTT16=
EXTT17=
EXTT18=
EXTT19=
EXTT20=
PLAYORDER=
